<svg xmlns="http://www.w3.org/2000/svg" width="634" height="136">
  <path fill="#a9b7c6" d="M497.5 69.281h66.719V136H497.5z"/>
  <path fill="#000" d="M567.281 69.281H634V136h-66.719z"/>
  <path fill="#9876aa" d="M567.281-.5H634v66.719h-66.719z"/>
  <path fill="#cc7832" d="M497.5-.5h66.719v66.719H497.5z"/>
  <path fill="#cc7832" d="M48.013 47.454L46.32 78.476l-.13 5.859-1.986-5.6-5.924-16.926h-4L29.133 77.6l-2.051 6.738-.488-7.943-1.66-28.939h-5.469L22.395 90h7.259l4.883-14.746 1.53-5.241 1.465 4.85L42.8 90h7.52l2.865-42.545h-5.172zm39.648 0H80.6l-6.024 16.015-1.79 5.4-1.856-5.4-5.73-16.015h-6.868L56.249 90h5.469l.749-26.074.133-10.646 1.986 6.575 5.99 16.276h4L80.858 59.2l1.986-5.925.356 10.194L84.048 90h5.664zm19.043 37.6h-9.8V90h25.456v-4.949h-9.8V52.336h9.8v-4.882H96.906v4.883h9.8v32.714z" fill-rule="evenodd"/>
  <path fill="#9876aa" d="M183.494 73.082a11.107 11.107 0 0 0-2.523-3.239 16.63 16.63 0 0 0-3.564-2.393q-2-1.009-4.085-1.855t-4.086-1.644a22.293 22.293 0 0 1-3.564-1.774 9.544 9.544 0 0 1-2.523-2.214 4.686 4.686 0 0 1-.96-2.962 5.2 5.2 0 0 1 2.344-4.46q2.343-1.66 7.324-1.66a32.874 32.874 0 0 1 4.85.374 39.522 39.522 0 0 1 5.013 1.091v-5.208q-1.074-.26-2.327-.488t-2.539-.407q-1.287-.178-2.54-.277t-2.327-.1a22.689 22.689 0 0 0-7.178 1.009 14.667 14.667 0 0 0-4.931 2.653 10.282 10.282 0 0 0-2.832 3.76 10.766 10.766 0 0 0-.912 4.3 9.171 9.171 0 0 0 .96 4.329 10.838 10.838 0 0 0 2.523 3.174 16.88 16.88 0 0 0 3.565 2.344q2 .993 4.085 1.839t4.085 1.644a23.28 23.28 0 0 1 3.565 1.758 9.475 9.475 0 0 1 2.522 2.181 4.621 4.621 0 0 1 .961 2.943 6.7 6.7 0 0 1-.57 2.832 5.168 5.168 0 0 1-1.823 2.1 9.183 9.183 0 0 1-3.222 1.3 22.243 22.243 0 0 1-4.769.44 41.287 41.287 0 0 1-6.918-.521 30.293 30.293 0 0 1-5.485-1.432v5.6q1.107.293 2.474.553t2.913.458q1.545.2 3.222.325t3.369.13a29.284 29.284 0 0 0 6.853-.749 15.963 15.963 0 0 0 5.322-2.262 10.786 10.786 0 0 0 3.45-3.792 10.946 10.946 0 0 0 1.237-5.306 9.447 9.447 0 0 0-.959-4.394zm35.759 9.44a18.532 18.532 0 0 1-4.183 1.563 19.069 19.069 0 0 1-4.476.521q-5.112 0-7.992-2.946t-2.881-8.87a14.305 14.305 0 0 1 .847-5.078 11.323 11.323 0 0 1 2.311-3.809 10.031 10.031 0 0 1 3.4-2.392 10.334 10.334 0 0 1 4.117-.83 20.228 20.228 0 0 1 4.541.5 18 18 0 0 1 4.314 1.611v-5.4a19.739 19.739 0 0 0-4.232-1.172 29.807 29.807 0 0 0-4.753-.358 17.684 17.684 0 0 0-6.673 1.221 14.954 14.954 0 0 0-5.208 3.467 15.665 15.665 0 0 0-3.386 5.4 19.593 19.593 0 0 0-1.2 7.031q0 8.073 4.183 12.272t11.93 4.2a27.864 27.864 0 0 0 4.8-.407 24.487 24.487 0 0 0 4.541-1.253v-5.271zM231.85 89h5.729V68a42.624 42.624 0 0 1 2.93-3.385 21.371 21.371 0 0 1 2.588-2.295 9.293 9.293 0 0 1 2.376-1.3 6.876 6.876 0 0 1 2.295-.407 4.516 4.516 0 0 1 3.955 1.937q1.351 1.937 1.254 6.234h5.729q.195-6.477-2.425-9.766t-7.7-3.288a11.6 11.6 0 0 0-5.68 1.563 20.964 20.964 0 0 0-5.713 5.045l-.163-6.022h-5.175V89zm46.45-4.72h-10.74V89h26.2v-4.72h-9.733V56.318h-15.4v4.688h9.673V84.28zm.228-41.325a4.246 4.246 0 0 0-1.416.96 4.62 4.62 0 0 0-.944 1.416 4.564 4.564 0 0 0 0 3.467 4.556 4.556 0 0 0 .944 1.432 4.241 4.241 0 0 0 1.416.96 4.692 4.692 0 0 0 3.516 0 4.261 4.261 0 0 0 1.416-.96 4.574 4.574 0 0 0 .944-1.432 4.576 4.576 0 0 0 0-3.467 4.637 4.637 0 0 0-.944-1.416 4.267 4.267 0 0 0-1.416-.96 4.692 4.692 0 0 0-3.514 0zm52.506 22.4a15.623 15.623 0 0 0-2.148-5.143 10.21 10.21 0 0 0-3.548-3.3 9.983 9.983 0 0 0-4.916-1.172 13.469 13.469 0 0 0-5.989 1.351 14.576 14.576 0 0 0-5.208 4.7l-.359-5.469h-5.045v46.028h5.664V88.675a23.627 23.627 0 0 0 3.141.553 29.735 29.735 0 0 0 3.109.163 18.3 18.3 0 0 0 6.348-1.074 13.816 13.816 0 0 0 5.078-3.223 14.928 14.928 0 0 0 3.369-5.4 21.648 21.648 0 0 0 1.221-7.617 29.067 29.067 0 0 0-.715-6.726zm-7.682 16.341a8.877 8.877 0 0 1-7.192 3.104 15.915 15.915 0 0 1-3.385-.374 18.933 18.933 0 0 1-3.288-1.025V67.548a33.286 33.286 0 0 1 2.816-3.271 17.126 17.126 0 0 1 2.506-2.116 8.845 8.845 0 0 1 2.295-1.139 7.365 7.365 0 0 1 2.181-.342 5.257 5.257 0 0 1 3.027.863 6.53 6.53 0 0 1 2.084 2.393 12.347 12.347 0 0 1 1.188 3.678 27.632 27.632 0 0 1 .374 4.72q0 6.249-2.604 9.358zm43.457 1.969a32.474 32.474 0 0 1-3.874.765 26.319 26.319 0 0 1-3.417.244A7.828 7.828 0 0 1 354 82.929a6.843 6.843 0 0 1-1.872-5.257V61.07h14.681v-4.752H352.13V45.869l-5.664 1.465v8.984h-9.147v4.752h9.147v17.058q0 5.762 3.027 8.545t9.18 2.783a40.619 40.619 0 0 0 4.167-.212 27.652 27.652 0 0 0 3.971-.7v-4.882zm21.452.618h-10.74V89h26.2v-4.72h-9.733V56.318H378.6v4.688h9.668V84.28zm.228-41.325a4.246 4.246 0 0 0-1.416.96 4.62 4.62 0 0 0-.944 1.416 4.564 4.564 0 0 0 0 3.467 4.556 4.556 0 0 0 .944 1.432 4.241 4.241 0 0 0 1.416.96 4.689 4.689 0 0 0 3.515 0 4.255 4.255 0 0 0 1.417-.96 4.574 4.574 0 0 0 .944-1.432 4.576 4.576 0 0 0 0-3.467 4.637 4.637 0 0 0-.944-1.416 4.261 4.261 0 0 0-1.417-.96 4.689 4.689 0 0 0-3.513-.003zM413.784 89h5.664V67.32q1.563-1.953 2.816-3.255A17.084 17.084 0 0 1 424.591 62a7.431 7.431 0 0 1 2.067-1.074 6.809 6.809 0 0 1 2.035-.309 5.073 5.073 0 0 1 4.264 1.839q1.433 1.839 1.432 5.68V89h5.664V67.678q0-5.989-2.588-8.968t-7.633-2.978a13.617 13.617 0 0 0-2.767.277 9.805 9.805 0 0 0-2.62.96 15.152 15.152 0 0 0-2.621 1.807 23.616 23.616 0 0 0-2.767 2.816l-.228-5.273h-5.045V89zm65.43-28.06v-4.622h-11.849a13.343 13.343 0 0 0-1.954-.423 15.9 15.9 0 0 0-2.311-.163 15.653 15.653 0 0 0-5.224.83 11.915 11.915 0 0 0-4.037 2.327 10.386 10.386 0 0 0-2.6 3.6 11.344 11.344 0 0 0-.928 4.639 12.105 12.105 0 0 0 .179 2.2 8.984 8.984 0 0 0 1.335 3.337 16.873 16.873 0 0 0 1.09 1.465 19.92 19.92 0 0 0-2.36 3.32 7.739 7.739 0 0 0-.992 3.874 6.3 6.3 0 0 0 .195 1.53 5.989 5.989 0 0 0 .586 1.481 5.369 5.369 0 0 0 2.474 2.262 12.485 12.485 0 0 0-3.418 3.451 7.759 7.759 0 0 0-1.107 4.167 7.186 7.186 0 0 0 .814 3.4 7.09 7.09 0 0 0 2.6 2.669 14.779 14.779 0 0 0 4.574 1.758 30.848 30.848 0 0 0 6.754.635 25.981 25.981 0 0 0 7.194-.879 15.4 15.4 0 0 0 5-2.36 9.216 9.216 0 0 0 3.857-7.568 7.317 7.317 0 0 0-.83-3.548 7.479 7.479 0 0 0-2.311-2.572 11.119 11.119 0 0 0-3.548-1.6 19.45 19.45 0 0 0-4.509-.618l-8.593-.326a5.816 5.816 0 0 1-3.142-.879 2.414 2.414 0 0 1-1.188-2.051 3.894 3.894 0 0 1 .423-1.823 17.48 17.48 0 0 1 1.042-1.725 9.809 9.809 0 0 0 2.832 1.09 16.078 16.078 0 0 0 3.841.439 15.553 15.553 0 0 0 5.192-.83 12.1 12.1 0 0 0 4.053-2.327 10.3 10.3 0 0 0 2.62-3.6 11.344 11.344 0 0 0 .928-4.639 10.3 10.3 0 0 0-.5-3.271 8.541 8.541 0 0 0-1.416-2.653h5.241zm-24.74 31.36a5.356 5.356 0 0 1 .553-1.4 6.153 6.153 0 0 1 1.091-1.384 12.33 12.33 0 0 1 1.774-1.4l8.529.293a11.354 11.354 0 0 1 4.98 1.107 3.152 3.152 0 0 1 1.628 2.93 4.684 4.684 0 0 1-2.1 3.922 9.182 9.182 0 0 1-2.962 1.286 17.994 17.994 0 0 1-4.541.488 17.117 17.117 0 0 1-6.706-1.058 3.521 3.521 0 0 1-2.409-3.369 6.2 6.2 0 0 1 .163-1.415zm2.034-27.946a6.6 6.6 0 0 1 1.368-2.23 6.7 6.7 0 0 1 2.213-1.546A7.346 7.346 0 0 1 463.1 60a7.743 7.743 0 0 1 2.849.5 6.693 6.693 0 0 1 2.229 1.416 6.259 6.259 0 0 1 1.465 2.214 7.651 7.651 0 0 1 .521 2.865 7.521 7.521 0 0 1-.472 2.637 6.81 6.81 0 0 1-1.367 2.246 6.4 6.4 0 0 1-2.214 1.546 7.524 7.524 0 0 1-3.011.57 7.729 7.729 0 0 1-2.848-.5 6.672 6.672 0 0 1-2.23-1.416 6.25 6.25 0 0 1-1.465-2.214 7.649 7.649 0 0 1-.521-2.865 7.521 7.521 0 0 1 .472-2.641z"  fill-rule="evenodd"/>
</svg>
